# xmcd CD database file
#
# Track frame offsets:
#	150
#	21810
#	44980
#
# Disc length: 850 seconds
#
# Revision: 0
# Processed by: cddbd v1.5.1PL0 Copyright (c) Steve Scherf et al.
# Submitted via: CDex 1.50
#
DISCID=24035003
DTITLE=capsule - 東京喫茶
DYEAR=2001
DGENRE=J ポップ
TTITLE0=東京喫茶
TTITLE1=恋ノ花
TTITLE2=まち惚け
EXTD=YEAR: 2001
EXTT0=
EXTT1=
EXTT2=
PLAYORDER=
